# xmcd
#
# Track frame offsets:
# 150
# 9405
# 22110
# 38542
# 51837
# 67722
# 84985
# 98610
# 116122
# 128540
# 141540
# 160610
# 181132
# 201302
# 212880
# 230430
#
# Disc length: 3320 seconds
#
#
# Revision: 3
# Processed by: cddbd v1.5.1PL0 Copyright (c) Steve Scherf et al.
# Submitted via: FreeRIP 2.30 
#
DISCID=cd0cf610
DTITLE=Shirley Bassey - I Am What I Am
DYEAR=1900
DGENRE=Easy Listening
TTITLE0=Big Spender
TTITLE1=Goldfinger
TTITLE2=Kiss Me Honey Honey Kiss Me
TTITLE3=What Now My Love
TTITLE4=Something
TTITLE5=As Long As He Needs Me
TTITLE6=As I Love You
TTITLE7=Send in The Clowns
TTITLE8=I Am What I Am
TTITLE9=I (Who Have Nothing)
TTITLE10=Natalie
TTITLE11=And I Love You So
TTITLE12=Never Never Never
TTITLE13=For All We Know
TTITLE14=This Is My Life
TTITLE15=If You  Don't Understand
EXTD=
EXTT0=
EXTT1=
EXTT2=
EXTT3=
EXTT4=
EXTT5=
EXTT6=
EXTT7=
EXTT8=
EXTT9=
EXTT10=
EXTT11=
EXTT12=
EXTT13=
EXTT14=
EXTT15=
PLAYORDER=
